<?xml version="1.0" encoding="UTF-8" standalone="no"?>
<!-- Created with Inkscape (http://www.inkscape.org/) -->

<svg
   width="210mm"
   height="297mm"
   viewBox="0 0 210 297"
   version="1.1"
   id="svg5"
   xml:space="preserve"
   inkscape:version="1.2.2 (732a01da63, 2022-12-09)"
   sodipodi:docname="kinapp_logo.svg"
   inkscape:export-filename="logo.png"
   inkscape:export-xdpi="96"
   inkscape:export-ydpi="96"
   xmlns:inkscape="http://www.inkscape.org/namespaces/inkscape"
   xmlns:sodipodi="http://sodipodi.sourceforge.net/DTD/sodipodi-0.dtd"
   xmlns="http://www.w3.org/2000/svg"
   xmlns:svg="http://www.w3.org/2000/svg"><sodipodi:namedview
     id="namedview7"
     pagecolor="#ffffff"
     bordercolor="#000000"
     borderopacity="0.25"
     inkscape:showpageshadow="2"
     inkscape:pageopacity="0.0"
     inkscape:pagecheckerboard="0"
     inkscape:deskcolor="#d1d1d1"
     inkscape:document-units="mm"
     showgrid="false"
     inkscape:zoom="0.34869793"
     inkscape:cx="410.09707"
     inkscape:cy="901.92678"
     inkscape:window-width="1920"
     inkscape:window-height="991"
     inkscape:window-x="-9"
     inkscape:window-y="-9"
     inkscape:window-maximized="1"
     inkscape:current-layer="layer1"
     showguides="false" /><defs
     id="defs2" /><g
     inkscape:label="Capa 1"
     inkscape:groupmode="layer"
     id="layer1"><path
       style="fill:#01023b;fill-opacity:1;stroke:none;stroke-width:1.34001;stroke-linecap:round;stroke-linejoin:round;stroke-dasharray:none;stroke-opacity:1;paint-order:markers fill stroke"
       d="m 132.97922,143.44841 c 1.10979,3.36812 2.80023,6.62078 5.04383,9.36706 1.97802,2.4212 4.76713,4.04761 7.20542,6.00453 1.73593,1.39325 3.34158,2.99602 5.28396,4.08308 2.16691,1.2127 6.96528,2.64202 6.96528,2.64202 0,0 -4.56519,0.54043 -6.48488,1.68127 -2.9216,1.73621 -4.92493,4.72765 -6.96526,7.44559 -1.78875,2.38283 -3.29374,4.9904 -4.56345,7.68582 -1.41369,3.00114 -2.2775,6.23208 -3.36255,9.36707 -0.91082,2.63174 -1.32333,5.47308 -2.64199,7.926 -1.78211,3.31501 -4.57367,5.98054 -6.96525,8.88668 -2.95763,3.59405 -5.52356,7.62171 -9.1269,10.56798 -2.27558,1.86065 -4.9614,3.21975 -7.68579,4.32326 -2.91578,1.18104 -6.00233,2.03629 -9.12689,2.40184 -3.261206,0.38153 -6.591669,0.18508 -9.847429,-0.24032 -4.081975,-0.53357 -7.998082,-1.95528 -12.009069,-2.88218 -4.315003,-0.99716 -8.689682,-1.74451 -12.969791,-2.88218 -2.349415,-0.62445 -4.679871,-1.33292 -6.965261,-2.16161 -0.978449,-0.35478 -2.121332,-0.49073 -2.882176,-1.20092 -1.963031,-1.83233 -2.802048,-4.64228 -3.602719,-7.20545 -0.843983,-2.70181 0.06496,-5.87461 -1.200906,-8.40634 -1.519039,-3.03808 -4.082631,-5.86922 -7.205436,-7.20543 -3.165878,-1.35469 -7.055014,-1.31097 -10.327797,-0.2401 -2.49596,0.81672 -4.687128,2.68924 -6.244714,4.80367 -1.367169,1.8559 -2.146288,4.19393 -2.40181,6.48487 -0.268597,2.40814 0.09809,4.94109 0.960721,7.20544 1.067181,2.80134 3.592304,4.82271 5.043809,7.44561 1.440596,2.60316 2.839909,5.29044 3.602724,8.16618 0.598454,2.25613 0.600293,4.63421 0.720546,6.96526 0.07837,1.51912 -0.511589,3.13089 0,4.56345 0.913827,2.55888 3.026759,4.62908 5.163576,6.30751 2.369607,1.86124 5.221889,3.2036 8.152026,3.90616 2.312795,0.55456 4.757867,0.0467 7.133023,0.16993 2.835792,0.14714 8.491685,0.67934 8.491685,0.67934 0,0 7.304499,1.22787 10.869371,2.20784 4.799252,1.31928 9.451086,3.13736 14.096194,4.92519 3.130253,1.20477 6.184466,2.59847 9.273149,3.90618 3.195294,1.35284 6.277014,3.0079 9.578424,4.076 2.43037,0.7863 4.91876,1.7488 7.47268,1.69834 3.048,-0.0603 6.11075,-1.00204 8.83136,-2.37765 5.42831,-2.7447 9.55166,-7.53513 14.26606,-11.37887 3.76949,-3.07339 7.23559,-6.53612 11.209,-9.3409 4.08493,-2.88348 8.54542,-5.19832 12.90739,-7.64249 2.84992,-1.59692 5.75678,-3.09067 8.66153,-4.58552 1.91346,-0.98471 3.77177,-2.09927 5.77434,-2.88718 4.6675,-1.83646 10.01785,-1.87117 14.43589,-4.24584 4.565,-2.45366 8.74402,-5.90038 11.88835,-10.02019 2.53561,-3.32223 4.26471,-7.32104 5.26483,-11.37886 1.08519,-4.40282 1.58886,-9.14431 0.67934,-13.58672 -1.03594,-5.06003 -3.66926,-9.81331 -6.79337,-13.92639 -2.42557,-3.19348 -5.61131,-5.83955 -9.00117,-7.98218 -2.07983,-1.31463 -6.79337,-2.88716 -6.79337,-2.88716 0,0 8.64295,-4.47307 11.37891,-7.98222 0,0 5.86576,-6.25877 7.81236,-10.02018 1.71213,-3.30839 2.48798,-6.97535 3.22682,-10.69953 0.79385,-4.00155 1.0513,-8.18463 0.5095,-12.22802 -0.52074,-3.88618 -1.83398,-7.69168 -3.5665,-11.20905 -1.79723,-3.64875 -4.19433,-7.04079 -6.96319,-10.02017 -2.08248,-2.24084 -4.56101,-4.118219 -7.13301,-5.774376 -2.34148,-1.507711 -4.64849,-2.388017 -7.26041,-3.354216 -1.31351,-0.485893 -3.13021,-0.613578 -4.2883,-1.401122 L 155.02688,74.665172 C 146.23528,68.686906 137.7397,62.255482 129.55177,55.473946 121.77399,49.032115 114.46632,42.038193 107.1337,35.093878 102.8611,31.047534 99.664587,25.634172 94.566021,22.696015 c 0,0 -6.344208,-4.613327 -10.020207,-5.774339 -3.035065,-0.958579 -6.336087,-1.078027 -9.510691,-0.849183 -3.423926,0.2469 -6.927701,0.887496 -10.020197,2.377683 -3.305507,1.592845 -6.195231,4.076556 -8.661528,6.793339 -1.625551,1.790644 -3.906179,6.114023 -3.906179,6.114023 l -4.076006,9.680546 -5.434685,7.982179 -6.623516,6.114024 -10.020196,5.434682 -10.020199,4.585497 c 0,0 -5.924377,2.395459 -8.4916916,4.245865 -2.1432928,1.544807 -4.1786907,3.380274 -5.6045104,5.604498 -0.8796588,1.372233 -1.3608494,2.990879 -1.69834439,4.585523 -0.56373031,2.663632 -1.120461,5.498825 -0.50949879,8.152024 0.77366789,3.359788 3.26412078,6.07978 5.09501858,9.001178 2.0097454,3.206754 4.4708763,6.117366 6.4536826,9.340876 2.296134,3.73286 4.191105,7.6981 6.283849,11.5487 2.153156,3.96173 4.386629,7.88102 6.453684,11.88836 1.357965,2.63263 3.906179,7.98219 3.906179,7.98219 0,0 1.32647,3.75993 2.377678,5.43468 1.387355,2.21033 2.925197,4.4943 5.095009,5.94419 2.575116,1.7207 5.740086,2.69719 8.831359,2.88716 2.648495,0.16282 5.297055,-0.68334 7.812354,-1.5285 2.807964,-0.9435 5.143419,-3.05991 7.982196,-3.90619 1.749567,-0.52157 3.619561,-0.48341 5.434676,-0.6793 1.865048,-0.20133 3.800227,0.002 5.604517,-0.5095 2.313362,-0.65809 4.719993,-1.5598 6.45369,-3.22685 1.862875,-1.79125 3.629578,-4.21122 3.73634,-6.79336 0.120386,-2.91175 -1.565546,-5.86349 -3.566507,-7.98218 -1.269101,-1.3438 -3.123179,-2.13627 -4.925187,-2.54753 -1.932513,-0.44106 -3.99231,-0.17549 -5.944183,0.16991 -1.057686,0.18715 -1.996752,0.84696 -3.057007,1.01901 -2.29109,0.3718 -4.642122,0 -6.963182,0 -2.094619,0 -4.226003,0.39073 -6.283859,0 -1.972658,-0.37457 -3.940366,-1.08432 -5.604509,-2.20783 -2.455985,-1.65815 -4.67036,-3.86582 -6.114022,-6.45368 -1.39816,-2.50632 -1.649091,-5.50686 -2.207834,-8.32188 -0.500365,-2.52088 -0.848797,-5.07811 -1.019006,-7.64251 -0.108739,-1.638133 -0.286428,-3.308642 0,-4.925189 0.431198,-2.43362 1.277255,-4.843089 2.547509,-6.963186 1.092158,-1.822847 2.677828,-3.321133 4.245844,-4.755335 2.23905,-2.047976 4.851008,-3.646975 7.302856,-5.434681 2.360986,-1.721462 4.50946,-3.808713 7.133021,-5.095023 2.12274,-1.040778 4.479376,-1.553493 6.79335,-2.037999 2.288625,-0.479214 4.625944,-0.780305 6.963187,-0.849184 1.814308,-0.05343 3.652973,-0.0076 5.434685,0.339684 3.866018,0.751867 7.517162,2.364667 11.20904,3.736341 3.212634,1.193601 6.473463,2.31845 9.51068,3.906181 3.88255,2.029643 7.36269,3.669565 11.03921,6.052209 2.26642,1.468807 4.78087,3.695363 6.79337,5.496491 2.12809,1.904577 3.71203,4.345564 5.43465,6.6235 1.91338,2.530255 3.97679,4.994961 5.4347,7.812361 2.90522,5.61432 5.44944,11.59136 6.45369,17.83255 0.63879,3.96992 -0.56972,8.04379 -0.33968,12.0582 0.16358,2.85508 0.32467,5.77602 1.2196,8.49217 z"
       id="path8968"
       sodipodi:nodetypes="sssacsssssssssssssssssssssssssssscsssssaaassssssssscsssssssssssasasssccccccsssssssscsssssssssssssssssssasssaaasasssassss" /><circle
       style="fill:#ffffff;fill-opacity:1;stroke:none;stroke-width:0.480677;stroke-linecap:round;stroke-linejoin:round;stroke-dasharray:none;stroke-opacity:1;paint-order:markers fill stroke"
       id="path9024-3"
       cx="51.964943"
       cy="232.51633"
       r="6.1530418" /><circle
       style="fill:#ffffff;fill-opacity:1;stroke:none;stroke-width:1.18998;stroke-linecap:round;stroke-linejoin:round;stroke-dasharray:none;stroke-opacity:1;paint-order:markers fill stroke"
       id="path9024-4"
       cx="174.45895"
       cy="195.49867"
       r="15.232682" /><circle
       style="fill:#ffffff;fill-opacity:1;stroke:none;stroke-width:0.595975;stroke-linecap:round;stroke-linejoin:round;stroke-dasharray:none;stroke-opacity:1;paint-order:markers fill stroke"
       id="path9024-12"
       cx="113.91769"
       cy="244.75064"
       r="7.628942" /><circle
       style="fill:#ffffff;fill-opacity:1;stroke:none;stroke-width:0.448153;stroke-linecap:round;stroke-linejoin:round;stroke-dasharray:none;stroke-opacity:1;paint-order:markers fill stroke"
       id="path9024-88"
       cx="46.10437"
       cy="135.90677"
       r="5.7366819" /><circle
       style="fill:#ffffff;fill-opacity:1;stroke:none;stroke-width:1.28894;stroke-linecap:round;stroke-linejoin:round;stroke-dasharray:none;stroke-opacity:1;paint-order:markers fill stroke"
       id="path9024"
       cx="168.95325"
       cy="128.67229"
       r="16.499416" /><ellipse
       style="fill:#fbf6f6;fill-opacity:1;stroke:none;stroke-width:1.02005;stroke-linecap:round;stroke-linejoin:round;stroke-dasharray:none;stroke-opacity:1;paint-order:markers fill stroke"
       id="path9024-8"
       cx="78.203552"
       cy="43.92519"
       rx="13.576855"
       ry="12.55785" /><circle
       style="fill:#ffffff;fill-opacity:1;stroke:none;stroke-width:0.650505;stroke-linecap:round;stroke-linejoin:round;stroke-dasharray:none;stroke-opacity:1;paint-order:markers fill stroke"
       id="path9024-1"
       cx="20.17878"
       cy="84.880768"
       r="8.3269444" /></g></svg>
